<?xml version="1.0" standalone="no"?>
<!DOCTYPE svg PUBLIC "-//W3C//DTD SVG 20010904//EN"
 "http://www.w3.org/TR/2001/REC-SVG-20010904/DTD/svg10.dtd">
<svg version="1.0" xmlns="http://www.w3.org/2000/svg"
 width="300.000000pt" height="290.000000pt" viewBox="0 0 300.000000 290.000000"
 preserveAspectRatio="xMidYMid meet">
<metadata>
Created by potrace 1.10, written by Peter Selinger 2001-2011
</metadata>
<g transform="translate(0.000000,290.000000) scale(0.100000,-0.100000)"
fill="#000000" stroke="none">
<path d="M1232 2358 c-83 -161 -168 -326 -191 -367 -23 -41 -41 -77 -41 -82 0
-4 11 -9 25 -11 24 -3 19 -14 -144 -328 l-169 -325 29 -3 c17 -2 29 -8 27 -15
-2 -7 -52 -135 -112 -284 -60 -150 -108 -275 -105 -277 2 -2 346 -8 764 -12
l759 -7 -49 -44 c-153 -135 -352 -226 -562 -258 -124 -19 -188 -19 -299 0
-212 37 -423 135 -547 254 -26 25 -47 40 -47 34 0 -17 101 -105 179 -158 298
-198 697 -227 1035 -76 334 151 612 508 682 878 24 131 22 341 -5 471 -48 228
-164 438 -330 598 -133 128 -251 202 -399 248 -98 31 -235 56 -302 56 l-48 0
-150 -292z m438 227 c128 -33 265 -100 350 -171 66 -55 197 -189 228 -233 83
-121 168 -307 185 -406 3 -16 11 -55 17 -85 22 -110 8 -383 -26 -495 -25 -83
-77 -205 -87 -205 -5 0 -7 6 -4 14 45 117 79 332 76 477 -1 47 1 92 5 98 4 6
3 11 -2 11 -5 0 -13 24 -16 53 -15 117 -76 300 -138 414 -44 81 -157 213 -236
276 -179 142 -335 204 -565 223 -43 4 -80 11 -83 15 -3 5 0 18 7 30 10 20 16
21 98 16 47 -3 133 -17 191 -32z m-66 -77 c292 -57 577 -298 685 -578 60 -154
83 -263 88 -420 9 -248 -37 -467 -133 -636 -42 -75 -104 -163 -114 -164 -5 0
-31 60 -161 363 l-67 157 29 0 c16 0 29 4 29 9 0 5 -73 156 -163 335 l-163
326 33 0 c18 0 33 3 33 6 0 11 -296 563 -328 612 l-15 24 74 -7 c41 -4 119
-16 173 -27z m-219 -109 c22 -45 86 -167 142 -273 l102 -191 -60 -3 c-59 -3
-85 -22 -30 -22 28 0 36 -13 200 -318 94 -175 171 -322 171 -326 0 -4 -72 -6
-161 -5 -88 0 -163 -1 -165 -4 -3 -3 52 -8 123 -12 70 -3 133 -8 139 -10 5 -1
23 -34 39 -71 16 -38 70 -160 121 -271 l92 -203 -352 0 c-193 0 -537 -3 -763
-7 l-413 -6 125 279 124 279 123 3 c189 4 172 22 -21 22 -127 0 -162 3 -158
13 3 6 77 149 165 317 158 301 161 305 194 308 64 6 54 22 -15 22 -37 0 -67 3
-67 6 0 10 295 554 300 554 3 0 23 -37 45 -81z m727 -1741 c-6 -6 -15 -7 -22
-3 -8 5 -6 11 7 20 20 15 32 0 15 -17z"/>
<path d="M1930 1374 c0 -5 6 -18 13 -29 12 -15 15 -16 22 -4 5 8 4 10 0 6 -5
-4 -15 3 -22 15 -7 13 -12 18 -13 12z"/>
<path d="M2046 967 c3 -10 9 -15 12 -12 3 3 0 11 -7 18 -10 9 -11 8 -5 -6z"/>
<path d="M2061 935 c0 -5 6 -21 13 -35 l14 -25 -1 27 c-1 14 -5 24 -9 22 -3
-2 -9 2 -11 8 -3 7 -6 9 -6 3z"/>
<path d="M2090 861 c0 -6 4 -13 10 -16 6 -3 7 1 4 9 -7 18 -14 21 -14 7z"/>
<path d="M1317 2345 c-9 -19 -15 -35 -12 -35 7 0 37 61 33 66 -3 2 -12 -12
-21 -31z"/>
<path d="M1152 2035 c-6 -14 -8 -25 -3 -25 8 0 23 41 17 47 -1 2 -8 -8 -14
-22z"/>
<path d="M1131 1984 c0 -11 3 -14 6 -6 3 7 2 16 -1 19 -3 4 -6 -2 -5 -13z"/>
<path d="M1080 1779 c0 -5 5 -7 10 -4 6 3 10 8 10 11 0 2 -4 4 -10 4 -5 0 -10
-5 -10 -11z"/>
<path d="M958 1548 c-79 -156 -86 -172 -65 -146 8 10 18 14 22 10 5 -4 5 -2 1
5 -6 11 77 189 94 203 7 6 17 31 18 44 0 5 6 13 14 17 10 6 10 9 1 9 -7 0 -45
-64 -85 -142z"/>
<path d="M847 1335 c-14 -25 -22 -45 -18 -45 4 0 17 20 29 45 12 25 20 45 18
45 -2 0 -16 -20 -29 -45z"/>
<path d="M845 1199 c-6 -8 -4 -10 5 -4 10 6 12 4 6 -11 -6 -15 -5 -17 5 -6 9
9 10 15 2 23 -8 8 -13 7 -18 -2z"/>
<path d="M832 1144 c-13 -14 -35 -64 -28 -64 6 0 47 72 44 75 -2 2 -9 -3 -16
-11z"/>
<path d="M743 955 c-9 -24 1 -27 15 -5 8 13 8 20 2 20 -6 0 -13 -7 -17 -15z"/>
<path d="M689 824 c-5 -15 -8 -29 -5 -31 2 -3 7 6 11 19 4 13 13 26 19 30 8 5
7 8 -2 8 -7 0 -17 -12 -23 -26z"/>
<path d="M2531 1474 c0 -11 3 -14 6 -6 3 7 2 16 -1 19 -3 4 -6 -2 -5 -13z"/>
<path d="M2440 1071 c-12 -24 -13 -34 -1 -27 9 6 22 46 15 46 -2 0 -8 -9 -14
-19z"/>
<path d="M2405 980 c-10 -11 -15 -20 -10 -20 4 0 2 -6 -4 -13 -6 -8 -8 -17 -4
-20 10 -11 20 -8 21 6 2 22 7 42 15 55 12 18 2 14 -18 -8z"/>
<path d="M2335 848 c-19 -40 -35 -68 -35 -63 0 6 -5 2 -11 -8 -8 -14 -8 -22 0
-30 8 -8 17 4 32 41 12 29 26 49 32 45 6 -3 7 -1 3 5 -4 7 -2 12 5 12 7 0 9 3
6 7 -4 3 0 17 8 29 9 14 11 25 5 29 -6 4 -26 -27 -45 -67z"/>
<path d="M2254 729 c-3 -6 -1 -15 5 -20 6 -5 9 -6 6 -3 -3 4 0 13 6 21 8 9 8
13 1 13 -6 0 -14 -5 -18 -11z"/>
<path d="M1054 618 c-5 -8 42 -60 132 -145 76 -73 142 -133 145 -133 10 0 279
271 279 281 0 15 -547 11 -556 -3z m401 -140 c-66 -67 -120 -124 -121 -125 -1
-2 -53 52 -117 120 l-116 124 237 2 237 2 -120 -123z"/>
<path d="M2156 613 c-6 -14 -5 -15 5 -6 7 7 10 15 7 18 -3 3 -9 -2 -12 -12z"/>
<path d="M2066 524 c-3 -8 -10 -13 -15 -9 -5 3 -12 1 -16 -5 -11 -18 22 -10
40 10 10 11 13 20 8 20 -6 0 -14 -7 -17 -16z"/>
<path d="M1982 471 c-18 -9 -30 -20 -27 -23 8 -7 65 23 65 35 0 4 -1 7 -2 6
-2 -1 -18 -9 -36 -18z"/>
<path d="M1479 403 c-13 -16 -12 -17 4 -4 16 13 21 21 13 21 -2 0 -10 -8 -17
-17z"/>
<path d="M1865 400 c-3 -6 1 -7 9 -4 18 7 21 14 7 14 -6 0 -13 -4 -16 -10z"/>
</g>
</svg>
